<?xml version="1.0" encoding="UTF-8"?>
<svg xmlns="http://www.w3.org/2000/svg" xmlns:xlink="http://www.w3.org/1999/xlink" width="18.004pt" height="18.004pt" viewBox="0 0 18.004 6.575" version="1.1">
<defs>
<clipPath id="clip1">
  <path d="M 0 0 L 18.003906 0 L 18.003906 6.574219 L 0 6.574219 Z M 0 0 "/>
</clipPath>
</defs>
<g id="surface1">
<g clip-path="url(#clip1)" clip-rule="nonzero">
<path style="fill:none;stroke-width:1.59404;stroke-linecap:butt;stroke-linejoin:miter;stroke:rgb(0%,0%,0%);stroke-opacity:1;stroke-miterlimit:10;" d="M 0.697313 0.00184375 C 1.052781 -1.380969 2.236375 -2.490344 3.627 -2.490344 C 5.017625 -2.490344 6.205125 -1.380969 6.560594 0.00184375 C 6.912156 1.38075 6.435594 2.490125 5.755906 2.490125 C 5.072312 2.490125 4.59575 1.38075 4.947312 0.00184375 C 5.302781 -1.380969 6.490281 -2.490344 7.880906 -2.490344 C 9.271531 -2.490344 10.455125 -1.380969 10.810594 0.00184375 C 11.166063 1.38075 10.6895 2.490125 10.005906 2.490125 C 9.322313 2.490125 8.84575 1.38075 9.201219 0.00184375 C 9.556688 -1.380969 10.740281 -2.490344 12.130906 -2.490344 C 13.521531 -2.490344 14.709031 -1.380969 15.0645 0.00184375 L 16.310594 0.00184375 " transform="matrix(1,0,0,-1,0.498,3.287)"/>
</g>
</g>
</svg>
